<svg id="card" xmlns="http://www.w3.org/2000/svg" width="57.441" height="48.245" viewBox="0 0 57.441 48.245">
  <path id="Path_235" data-name="Path 235" d="M0,20.012a7.23,7.23,0,0,0,7.181,7.277H50.26a7.23,7.23,0,0,0,7.181-7.277V0H0Zm8.463-9.876a3.872,3.872,0,0,1,3.846-3.9h6.154a3.872,3.872,0,0,1,3.846,3.9v2.6a3.872,3.872,0,0,1-3.846,3.9H12.308a3.872,3.872,0,0,1-3.846-3.9Z" transform="translate(0 20.956)" fill="#c48313"/>
  <path id="Path_236" data-name="Path 236" d="M50.26,0H7.181A7.23,7.23,0,0,0,0,7.277v3.378H57.439V7.277A7.229,7.229,0,0,0,50.258,0Z" transform="translate(0)" fill="#c48313"/>
</svg>
