<svg xmlns="http://www.w3.org/2000/svg" width="1172.723" height="990.294" viewBox="0 0 1172.723 990.294">
  <g id="img" transform="translate(195.77 276.982)">
    <g id="background" transform="translate(78.048 40.272)">
      <g id="flowers" transform="translate(0)">
        <g id="Group_339" data-name="Group 339" transform="translate(19.096 474.227)">
          <g id="Group_326" data-name="Group 326" transform="translate(46.731)">
            <path id="Path_241" data-name="Path 241" d="M183.894,494.891c-2.146-23.961-10.791-46.717-19.409-69.3-8.518-22.322-18.1-45.874-18.526-69.747-.186-10.306,5.043-31.263,21.38-27.326,5.524,1.332,9,6.725,11.491,10.923a112.8,112.8,0,0,1,8.131,17.336c8.567,22.34,10.108,46.255,10.041,69.7-.05,17.631-1.413,35.349.19,52.952.1,1.049,1.846,1.082,1.842,0-.074-24.707,1.461-49.378,6.309-73.727a297.2,297.2,0,0,1,9.15-34.4c1.327-4.053,5.533-10.261,10.156-11.338,6.872-1.6,15.375.121,18.017,6.793,9.872,24.919,1.505,51.743-7.692,75.7-3.882,10.114-7.748,20.216-12.739,29.928q-6.108,11.885-11.985,23.868c-1.148,2.341-2.283,4.686-3.374,7.049-.457.987,1.327,1.412,1.774.441,6.99-15.116,15.683-29.634,21.826-45.035,9.2-23.076,19.477-46.777,18.318-71.717a69.921,69.921,0,0,0-2.854-16.309c-1.4-4.788-3.047-8.424-7.834-11.113-3.37-1.894-7.679-2.036-11.5-1.614-4.859.539-6.528,1.707-9.137,5.266-1,1.36-3.329,3.387-3.821,4.845q-1.407,4.171-2.716,8.363c-1.846,5.915-3.469,11.887-4.94,17.887a296.165,296.165,0,0,0-6.051,33.3,403.055,403.055,0,0,0-2.754,51.826h1.842c-1.846-20.256.037-40.668-.228-60.96-.3-22.953-3.121-46.013-12.269-67.586-3.353-7.909-7.329-17.461-15.326-22.514-8.269-5.228-17.472.517-21.986,7-6,8.631-5.625,20.12-4.413,29.81,1.4,11.194,4.4,22.241,7.858,33.048,10.283,32.126,26.36,62.962,29.38,96.667.094,1.057,1.938,1.065,1.842,0Z" transform="translate(-144.084 -326.328)" fill="#c48313"/>
          </g>
          <g id="Group_327" data-name="Group 327" transform="translate(85.465 151.341)">
            <path id="Path_242" data-name="Path 242" d="M167.394,435.156a126.62,126.62,0,0,0-2.11-15.215.925.925,0,0,0-1.809.243c.308,5.122,1.039,10.189,1.839,15.252.184,1.17,1.96.673,1.776-.49-.772-4.9-1.474-9.8-1.772-14.762l-1.809.245a122.7,122.7,0,0,1,2.043,14.727c.107,1.174,1.951,1.185,1.842,0Z" transform="translate(-163.473 -419.283)" fill="#c48313"/>
          </g>
          <g id="Group_328" data-name="Group 328" transform="translate(0 47.531)">
            <path id="Path_243" data-name="Path 243" d="M183.19,483.328c-7.788-20.6-24.12-35.711-38.629-51.624-7.773-8.527-15.02-17.553-20.241-27.893-4.951-9.8-11.672-24.52-4.93-34.893,5.826-8.965,18.568-1.7,24.912,2.57,8.092,5.448,14.476,12.755,20.6,20.256a198.748,198.748,0,0,1,37.105,70.977,170.165,170.165,0,0,1,4.229,19.335c.19,1.172,1.966.673,1.776-.49-4.068-25.129-13.689-48.975-27.1-70.55C170.5,394.262,157.5,376.25,139.8,366.584c-5.743-3.134-13.223-5.54-19.132-1.568-7.5,5.045-6.309,16.052-4.376,23.514,5.52,21.3,20.65,37.833,35.287,53.435,11.779,12.554,23.65,25.5,29.835,41.853.415,1.1,2.2.625,1.774-.49Z" transform="translate(-114.84 -362.94)" fill="#c48313"/>
          </g>
          <g id="Group_329" data-name="Group 329" transform="translate(102.712 28.734)">
            <path id="Path_244" data-name="Path 244" d="M204.974,353.167c-12.2,19.014-9.892,43.276-13.623,64.693-2.145,12.306-6.543,24.015-8.789,36.282-2.375,12.962-4.976,25.85-8.064,38.662-.278,1.155,1.5,1.643,1.776.488q4.43-18.381,7.794-36.989c2.1-11.67,6.158-22.824,8.415-34.454,2.15-11.082,3.073-22.2,4.116-33.422,1.118-12.029,3.344-24.011,9.966-34.331.645-1-.951-1.925-1.59-.929Z" transform="translate(-174.468 -352.738)" fill="#c48313"/>
          </g>
          <g id="Group_330" data-name="Group 330" transform="translate(67.251 20.467)">
            <path id="Path_245" data-name="Path 245" d="M153.578,338.226c.829,12.334,5.535,24.013,8.735,35.951,3.569,13.318,6.48,26.805,9.5,40.23,2.941,13.073,5.579,26.2,8.741,39.236,3.263,13.444,5.87,27.082,5.947,40.871.007,1.055,1.85,1.055,1.842,0-.07-12.407-2.209-24.664-4.954-36.8q-4.582-20.28-9.091-40.569c-2.878-12.973-5.778-25.966-9.03-38.871-3.35-13.289-8.929-26.375-9.848-40.047-.07-1.049-1.912-1.055-1.842,0Z" transform="translate(-153.576 -337.437)" fill="#c48313"/>
          </g>
          <g id="Group_331" data-name="Group 331" transform="translate(23.356 76.674)">
            <path id="Path_246" data-name="Path 246" d="M128.846,380.321c13.879,13.21,25.293,28.659,35.731,44.667,5.284,8.1,10.073,16.6,14.852,25.015,5.349,9.411,8.4,19.372,12.269,29.409.424,1.094,2.205.621,1.776-.49-3.5-9.061-6.1-18.283-10.778-26.846-4.921-9.017-10.111-18.034-15.661-26.677-10.681-16.634-22.528-32.715-36.886-46.38-.86-.818-2.165.483-1.3,1.3Z" transform="translate(-128.563 -378.758)" fill="#c48313"/>
          </g>
          <g id="Group_332" data-name="Group 332" transform="translate(26.075 107.386)">
            <path id="Path_247" data-name="Path 247" d="M130.288,393.876c11.182,7.514,23.442,13.419,34.021,21.824.919.73,2.233-.564,1.3-1.3-10.708-8.507-23.075-14.508-34.393-22.111-.991-.665-1.912.932-.93,1.59Z" transform="translate(-129.868 -392.127)" fill="#c48313"/>
          </g>
          <g id="Group_333" data-name="Group 333" transform="translate(55.757 104.652)">
            <path id="Path_248" data-name="Path 248" d="M146.9,392.9c4.094,5.395,6.541,12.35,8.848,18.638a200.956,200.956,0,0,1,6.681,23.873c.267,1.157,2.043.665,1.774-.49a209.912,209.912,0,0,0-7.1-25.022c-2.218-6.053-4.684-12.754-8.61-17.927-.709-.934-2.31-.018-1.592.929Z" transform="translate(-146.717 -391.584)" fill="#c48313"/>
          </g>
          <g id="Group_334" data-name="Group 334" transform="translate(113.958 87.836)">
            <path id="Path_249" data-name="Path 249" d="M179.744,381.06c.632,7.783,4.394,14.882,4.645,22.719.037,1.187,1.879,1.19,1.842,0-.251-7.851-4.013-14.939-4.645-22.719-.1-1.174-1.94-1.185-1.842,0Z" transform="translate(-179.74 -380.176)" fill="#c48313"/>
          </g>
          <g id="Group_335" data-name="Group 335" transform="translate(76.527 30.656)">
            <path id="Path_250" data-name="Path 250" d="M161.737,345.8c-2.581,8.1-2.229,16.917-3.324,25.275-.155,1.174,1.69,1.161,1.842,0,1.074-8.2.728-16.844,3.257-24.785.361-1.137-1.417-1.618-1.776-.49Z" transform="translate(-158.404 -345.155)" fill="#c48313"/>
          </g>
          <g id="Group_336" data-name="Group 336" transform="translate(65.185 59.283)">
            <path id="Path_251" data-name="Path 251" d="M152.339,364.342c4.044,5.706,7.351,11.862,11.519,17.483,3.832,5.17,6.964,10.159,8.376,16.5.256,1.161,2.032.667,1.774-.49-1.216-5.474-3.49-9.577-6.613-14.18-4.547-6.7-8.787-13.645-13.467-20.243-.682-.96-2.279-.042-1.59.929Z" transform="translate(-152.17 -363.008)" fill="#c48313"/>
          </g>
          <g id="Group_337" data-name="Group 337" transform="translate(89.34 79.461)">
            <path id="Path_252" data-name="Path 252" d="M170.52,376.147c-1.881,11.339-3.711,22.683-4.794,34.132-.111,1.185,1.732,1.172,1.842,0,1.069-11.285,2.874-22.465,4.728-33.643.193-1.161-1.583-1.658-1.776-.488Z" transform="translate(-165.721 -375.48)" fill="#c48313"/>
          </g>
          <g id="Group_338" data-name="Group 338" transform="translate(122.214 53.783)">
            <path id="Path_253" data-name="Path 253" d="M202.817,360.225c-4.555,11.9-12.278,22.4-17.667,33.914-.5,1.069,1.087,2,1.59.929,5.461-11.663,13.238-22.294,17.853-34.353.426-1.113-1.356-1.586-1.776-.49Z" transform="translate(-185.053 -359.604)" fill="#c48313"/>
          </g>
        </g>
        <g id="Group_346" data-name="Group 346" transform="translate(562.076 418.022)">
          <g id="Group_340" data-name="Group 340" transform="translate(65.04)">
            <path id="Path_254" data-name="Path 254" d="M612.307,563.568c-5.141-12.342-11.742-23.573-20.82-33.429-11.411-12.387-26.136-20.543-36.227-34.252-9.9-13.45-18.242-28.569-26.453-43.087-4.832-8.55-8.745-17.192-10.359-26.927-1.573-9.483-1.161-19.326-.476-28.87q-1,.571-1.989,1.142c6.394,2.737,11.1,7.571,16.264,12.072,5.12,4.469,11.152,7.867,16.626,11.874,12.789,9.364,24.253,21.664,33.575,34.41,8.653,11.832,14.73,25.781,20.59,39.142,5.1,11.612,9.237,24.869,16.785,35.164.825,1.124,2.949.5,2.417-1.018-9.325-26.654-13.075-54.958-12.223-83.138a315.4,315.4,0,0,1,3.882-38.367c1.9-12.255,4.864-24.673,11.189-35.452h-2.282c3.057,5.942,3.768,12.437,4.977,18.911,1.354,7.275,3.914,14.169,6.519,21.072,5.733,15.2,8.967,31.47,11.937,47.4,3.16,16.951,3.9,32.858,1.307,49.942-2.378,15.658-6.714,30.97-9.97,46.456-.293,1.4,1.717,2.425,2.417,1.016,4.678-9.409,9.068-18.943,12.977-28.7,4.263-10.634,7.082-21.677,10.848-32.472,5.916-16.954,16.01-32.372,32.208-40.821,19.376-10.1,63.672-20.167,68.728,11.26.648-.5,1.3-.994,1.941-1.494-29.269-12.392-52.219,14.96-66.917,36.756-9.951,14.759-20.26,28.656-31.626,42.394-4.511,5.456-8.555,12.175-13.81,16.909-4.691,4.223-13.807,10.7-20.458,10.073-1.7-.159-1.682,2.488,0,2.645,8.817.828,21.037-8.116,25.946-14.894,10.023-13.833,21.923-26.21,31.948-40.054,16.518-22.8,38.369-66.452,73.584-51.544a1.342,1.342,0,0,0,1.944-1.494C762.285,435.018,721.5,442,700.724,450.568c-15.777,6.506-26.871,18.078-34.506,33.31-5.286,10.541-7.936,22.055-11.67,33.17-4.538,13.508-10.5,26.5-16.838,39.247q1.206.508,2.417,1.018c3.417-16.261,7.823-32.313,10.319-48.76,2.393-15.767,1.626-30.9-1.2-46.52-3.036-16.811-6.49-33.855-12.4-49.926a154.868,154.868,0,0,1-6.519-21.069c-1.441-6.725-2.047-13.334-5.244-19.538a1.331,1.331,0,0,0-2.282,0c-12.059,20.535-13.8,47.239-15.222,70.521a227.945,227.945,0,0,0,12.1,88.47q1.21-.508,2.417-1.018c-7.955-10.856-12.332-25.025-17.729-37.322-6.225-14.19-13.048-28.331-22.428-40.728a162.476,162.476,0,0,0-29.97-30.251c-6.365-4.906-13.381-8.917-19.448-14.209-4.863-4.242-9.192-8.529-15.214-11.1A1.346,1.346,0,0,0,515.327,397c-1.224,17.033-.553,33.279,6.865,48.884,7.627,16.039,17.692,31.465,27.358,46.345a99.016,99.016,0,0,0,14.222,17.47c5.958,5.752,13.04,10.274,19.218,15.8,12.006,10.753,20.6,23.957,26.765,38.763.648,1.55,3.208.87,2.552-.7Z" transform="translate(-514.84 -370.856)" fill="#c48313"/>
          </g>
          <g id="Group_341" data-name="Group 341" transform="translate(0 123.18)">
            <path id="Path_255" data-name="Path 255" d="M634.735,488.641c-14.976-24.221-26.924-57.079-55.63-68.163-15.28-5.9-33.741-2.544-48.083,4.26-16.187,7.685-29.05,21.349-40.44,34.815a1.332,1.332,0,0,0,1.285,2.211c24.515-7.222,55.294-8.716,78.013,4.837,10.853,6.474,19.347,17.464,27.905,26.577,5.659,6.024,9.808,16.161,18.567,18.263,1.658.4,2.359-2.15.7-2.549-5.868-1.412-9.843-7.825-13.239-12.331A150.655,150.655,0,0,0,593.272,484.6c-8.748-9.385-17.324-18.81-29.338-23.938-22.587-9.629-49.632-8.264-72.767-1.449q.643,1.111,1.285,2.211c20.865-24.673,51.153-50.346,85.947-38.393,14.262,4.9,24.493,17.993,32.5,30.084,7.868,11.879,14.069,24.753,21.556,36.859.894,1.449,3.184.122,2.285-1.333Z" transform="translate(-490.246 -417.435)" fill="#c48313"/>
          </g>
          <g id="Group_342" data-name="Group 342" transform="translate(104.307 77.46)">
            <path id="Path_256" data-name="Path 256" d="M529.83,402.16c10.708,22.465,29.708,39.057,43.375,59.536a242.282,242.282,0,0,1,17.821,32.641c6.3,13.646,4.3,27.7,4.2,42.275a1.323,1.323,0,0,0,2.645,0c.09-12.318,2.2-25.35-1.92-37.182-4.316-12.408-11.567-24.258-18.226-35.529-13.275-22.473-34.268-39.282-45.61-63.074-.732-1.539-3.012-.2-2.282,1.333Z" transform="translate(-529.688 -400.147)" fill="#c48313"/>
          </g>
          <g id="Group_343" data-name="Group 343" transform="translate(67.507 145.057)">
            <path id="Path_257" data-name="Path 257" d="M516.435,428.157c19.6,10.382,38.734,21.219,52.314,39.168,4.821,6.371,9.523,12.831,14.426,19.141,1.441,1.854,5.432,8.759,8.439,8.444,1.679-.174,1.7-2.822,0-2.644-2.208.23-9.359-11.3-10.43-12.72-4.446-5.868-8.753-11.847-13.283-17.652-12.8-16.4-32.1-26.466-50.132-36.018-1.5-.8-2.84,1.484-1.333,2.282Z" transform="translate(-515.773 -425.708)" fill="#c48313"/>
          </g>
          <g id="Group_344" data-name="Group 344" transform="translate(171.834 73.549)">
            <path id="Path_258" data-name="Path 258" d="M561.184,399.946c.219,11.654,3.385,22.846,4.747,34.368,1.635,13.8.309,28.106-1.722,41.786-3.737,25.189-2,50.751-8.941,75.509l2.6.352v-2.983a1.323,1.323,0,0,0-2.645,0v2.983a1.328,1.328,0,0,0,2.6.352c6.712-23.943,6.135-48.982,8.719-73.526,1.4-13.291,3.065-26.218,2.419-39.639-.635-13.223-4.882-25.935-5.13-39.2a1.323,1.323,0,0,0-2.645,0Z" transform="translate(-555.223 -398.668)" fill="#c48313"/>
          </g>
          <g id="Group_345" data-name="Group 345" transform="translate(173.784 91.361)">
            <path id="Path_259" data-name="Path 259" d="M646.071,405.614c-20.225,12.8-34.918,34.913-46.456,55.442-11.1,19.755-20.865,44.1-42.963,53.848-1.558.685-.212,2.965,1.333,2.282,19.664-8.669,30.023-29.047,39.683-47.03,12.268-22.833,27.379-48.114,49.736-62.257,1.438-.91.111-3.2-1.333-2.285Z" transform="translate(-555.96 -405.403)" fill="#c48313"/>
          </g>
        </g>
      </g>
      <path id="Path_344" data-name="Path 344" d="M-130.049,652.631S-1.844,625.32-11.225,512.75-201.969,287.61-39.367,228.2s309.569-37.524,394-197S543.88-206.448,648.562-187.687s256.41-297.061,250.156-62.539,0,902.856,0,902.856Z" transform="translate(0 20)" fill="rgba(196,131,19,0.7)"/>
      <path id="Path_303" data-name="Path 303" d="M1367.82,396.059c0,5.081-8.287,9.2-18.507,9.2H216.512c-10.215,0-18.5-4.123-18.5-9.2h0c0-5.084,8.284-9.206,18.5-9.206h1132.8c10.219,0,18.507,4.122,18.507,9.206Z" transform="translate(-471.831 267.777)" fill="#9f6300"/>
    </g>
    <g id="Group_382" data-name="Group 382" transform="translate(35.784 -139.503)">
      <g id="girl_laptop" data-name="girl + laptop" transform="translate(97.691 362.759)">
        <g id="girl" transform="translate(295.585 163.617)">
          <path id="Path_261" data-name="Path 261" d="M392.732,250.491a15.108,15.108,0,0,1-15.107,15.11h0a15.111,15.111,0,0,1-15.109-15.11V240.006A15.109,15.109,0,0,1,377.625,224.9h0a15.107,15.107,0,0,1,15.107,15.107Z" transform="translate(-283.971 -173.154)" fill="#c48313"/>
          <path id="Path_262" data-name="Path 262" d="M575.125,384.36c-4.165-20.351-22.2-75.386-66.136-95.275s-85.1-3.7-100.364,5.546-32.835,45.328-40.7,79.089-34.689,33.3-55.5,40.7l9.711,35.151,214.6,1.386.463-5.55C593.161,442.171,579.289,404.709,575.125,384.36ZM355.671,438.241c8.556,0,46.711-28.676,54.576-27.753,3.928,21.044,4.394,32.145,4.855,33.535S357.982,455.583,355.671,438.241Z" transform="translate(-312.428 -142.067)" fill="#9f6300"/>
          <path id="Path_263" data-name="Path 263" d="M390.738,296.285c-2.772,13.255-14.182,94.35,5.245,147.69,15.1,1.231,37.613,0,37.613,0-4.315-28.059-12.95-105.761,4.932-150.16C420.647,294.122,390.738,296.285,390.738,296.285Z" transform="translate(-271.262 -134)" fill="#ffe4b5"/>
          <path id="Path_264" data-name="Path 264" d="M400.442,280.628c-15.261.93-18.808,17.423-11.869,27.6s20.038,1.847,22.352-3.237c16.5,15.57,37.925,1.542,42.548-21.584C453.473,281.558,427.27,276.468,400.442,280.628Z" transform="translate(-271.1 -142.398)" fill="#ffe4b5"/>
          <path id="Path_265" data-name="Path 265" d="M455.142,245.225c-.7-15.39-16.5-44.756-53.958-43.1-26.669,2.051-29.909,27.315-29.909,27.315-.925,2.835-5.7,8.836-5.7,8.836-1.388-11.838,6.1-43.205,39.776-44.046,37.922-.947,56.034,28.733,56.733,50.047C459.072,249.252,455.142,245.225,455.142,245.225Z" transform="translate(-282.323 -190.588)" fill="#c48313"/>
          <path id="Path_266" data-name="Path 266" d="M382.9,208.182c-12.809,8.774-20.48,23.379-13.989,37.9s8.333,20.927,2.037,32.289c-8.858,15.987-12.591,30.909-5.926,44.482,40.172-5.548,57.852-10.066,57.852-10.066S407.338,206.487,382.9,208.182Z" transform="translate(-284.482 -182.663)" fill="#31241c"/>
          <path id="Path_267" data-name="Path 267" d="M426.415,254.819s9.936,29.939,10.877,42.589c.856,11.6-37.524,19.338-40.248,7.18-2.837-14.468-7.055-39.062-7.055-39.062" transform="translate(-268.363 -156.155)" fill="#c97440"/>
          <path id="Path_268" data-name="Path 268" d="M429.6,267.322l-3.19-12.5-36.426,10.707s1.3,7.557,2.961,17.028A35.87,35.87,0,0,0,429.6,267.322Z" transform="translate(-268.363 -156.155)" fill="#ab5d2d"/>
          <path id="Path_269" data-name="Path 269" d="M373.242,273.047a36.129,36.129,0,0,0,37.7,34.483h0a36.131,36.131,0,0,0,34.485-37.71l-1.7-38.168a36.13,36.13,0,0,0-37.707-34.482h0a36.129,36.129,0,0,0-34.482,37.706Z" transform="translate(-278.867 -188.929)" fill="#c97440"/>
          <g id="Group_350" data-name="Group 350" transform="translate(125.955 42.098)">
            <path id="Path_270" data-name="Path 270" d="M408.85,221.245c-4.56-2.449-10.549-3.585-15.316-1.126-1.783.919-.21,3.605,1.571,2.686,3.713-1.916,8.658-.762,12.173,1.126,1.767.949,3.339-1.737,1.571-2.686Z" transform="translate(-392.75 -218.747)" fill="#31241c"/>
          </g>
          <g id="Group_351" data-name="Group 351" transform="translate(95.809 44.16)">
            <path id="Path_271" data-name="Path 271" d="M376.206,225.536a9.147,9.147,0,0,1,8.112-2.2c1.959.4,2.791-2.6.826-3a12.425,12.425,0,0,0-11.14,3c-1.458,1.383.747,3.578,2.2,2.2Z" transform="translate(-373.526 -220.062)" fill="#31241c"/>
          </g>
          <g id="Group_352" data-name="Group 352" transform="translate(111.802 64.931)">
            <path id="Path_272" data-name="Path 272" d="M391.939,245.85a1.174,1.174,0,0,1-.778-.293l-7.039-6.2a1.177,1.177,0,0,1,.2-1.908l7.093-3.991a1.176,1.176,0,0,1,1.154,2.05l-5.648,3.179,5.8,5.1a1.177,1.177,0,0,1-.778,2.059Z" transform="translate(-383.724 -233.308)" fill="#31241c"/>
          </g>
          <g id="Group_353" data-name="Group 353" transform="translate(116.898 77.407)">
            <path id="Path_273" data-name="Path 273" d="M392.7,251.308a9.307,9.307,0,0,1-5.214-1.493,1.176,1.176,0,0,1,1.325-1.943,7.856,7.856,0,0,0,7.646.155,5.578,5.578,0,0,0,2.849-5.534,1.176,1.176,0,0,1,2.349-.107,7.931,7.931,0,0,1-4.052,7.695A10.151,10.151,0,0,1,392.7,251.308Z" transform="translate(-386.974 -241.264)" fill="#31241c"/>
          </g>
          <path id="Path_274" data-name="Path 274" d="M394.106,235.16a4.39,4.39,0,1,0,2.556-5.663A4.392,4.392,0,0,0,394.106,235.16Z" transform="translate(-266.185 -170.703)" fill="#1a191f"/>
          <path id="Path_275" data-name="Path 275" d="M377.361,236.16a4.394,4.394,0,1,0,2.561-5.656A4.4,4.4,0,0,0,377.361,236.16Z" transform="translate(-275.699 -170.132)" fill="#1a191f"/>
          <g id="Group_354" data-name="Group 354" transform="translate(97.481 60.302)">
            <path id="Path_276" data-name="Path 276" d="M379.906,235.045a1.016,1.016,0,0,1-.536-.152l-4.284-2.625a1.033,1.033,0,1,1,1.079-1.761l4.283,2.625a1.032,1.032,0,0,1-.541,1.913Z" transform="translate(-374.592 -230.356)" fill="#1a191f"/>
          </g>
          <g id="Group_355" data-name="Group 355" transform="translate(132.877 58.277)">
            <path id="Path_277" data-name="Path 277" d="M398.2,234.235a1.033,1.033,0,0,1-.59-1.882l4.48-3.1a1.033,1.033,0,0,1,1.176,1.7l-4.48,3.1A1.028,1.028,0,0,1,398.2,234.235Z" transform="translate(-397.164 -229.065)" fill="#1a191f"/>
          </g>
          <path id="Path_278" data-name="Path 278" d="M478.815,276.249c-5.993-12.912,1.405-20.927-1.784-33.229-2.8-10.759-15.6-10.425-22.206-25.666-10.121-23.37-62.194-44.406-81.61,3.014,21.584-14.635,43.709-7.028,52.106,3.792,16.934,21.819-.442,31.062,6.094,44.038,4.762,9.453,7.885,15.821,1.731,30.13s2.462,27.911,2.462,27.911c20.152-2.23,42.934-4.212,63.632-7.718C499.238,283.6,484.8,289.16,478.815,276.249Z" transform="translate(-277.894 -191.901)" fill="#31241c"/>
          <path id="Path_279" data-name="Path 279" d="M404.027,359.684c-17.571,1.54-24.355,6.784-40.081,15.109S344.83,384.969,348.53,386.51c-9.249.616-3.856,5.547,2.62,3.387-4.314,1.852,1.7,3.858,10.329.619,2.159,3.392,13.26,1.854,20.351-2.156s24.049-7.4,39.465-2.159c1.852-9.558-4.007-26.208-4.007-26.208Z" transform="translate(-294.727 -96.578)" fill="#c97440"/>
          <path id="Path_280" data-name="Path 280" d="M389.257,361.112c9.481-2.079,36-4.242,51.725-3.313.925,12.332-5.858,37.307-5.858,37.307l-41.935-9.254S395.274,372.673,389.257,361.112Z" transform="translate(-268.779 -97.775)" fill="#c48313"/>
          <g id="Group_356" data-name="Group 356" transform="translate(118.698 256.233)">
            <path id="Path_281" data-name="Path 281" d="M389.108,362.624c18.724-2.707,37.659-2.655,56.528-3.185,9.09-.259,17.808-1.313,26.815-2.344,8.562-.979,18.7.88,26.933,3.371a.785.785,0,0,0,.417-1.513,82.061,82.061,0,0,0-24.453-3.638,94.114,94.114,0,0,0-11.785,1.473,141.9,141.9,0,0,1-16.385,1.035c-19.533.634-39.1.488-58.487,3.288-1,.144-.572,1.654.417,1.513Z" transform="translate(-388.122 -355.301)" fill="#1f0e03"/>
          </g>
          <g id="Group_357" data-name="Group 357" transform="translate(203.195 214.534)">
            <path id="Path_282" data-name="Path 282" d="M442.014,329.7a295.182,295.182,0,0,1,2.749,39.26.784.784,0,0,0,1.568,0,298.273,298.273,0,0,0-2.8-39.677c-.138-1-1.648-.571-1.513.417Z" transform="translate(-442.006 -328.71)" fill="#1f0e03"/>
          </g>
          <g id="Group_358" data-name="Group 358" transform="translate(122.417 287.291)">
            <path id="Path_283" data-name="Path 283" d="M391.252,376.677c5.67-.067,10.922,2.446,16.3,3.906,6.39,1.733,12.647,3.9,19.034,5.656a192.9,192.9,0,0,0,39.7,6.559c21.264,1.229,46.989.187,63.044-15.733a.784.784,0,0,0-1.109-1.109c-16.781,16.639-44.361,16.658-66.382,14.976a192.254,192.254,0,0,1-39.043-7.4c-5.691-1.664-11.369-3.4-17.05-5.1-4.783-1.429-9.415-3.386-14.49-3.324a.785.785,0,0,0,0,1.568Z" transform="translate(-390.494 -375.107)" fill="#1f0e03"/>
          </g>
          <g id="Group_359" data-name="Group 359" transform="translate(90.868 198.841)">
            <path id="Path_284" data-name="Path 284" d="M371.4,319.244c-1.4,4.206-.983,8.731-.922,13.1.085,6.014.527,12.017.839,18.021.31,5.929.489,11.861.966,17.779.439,5.465,2.506,10.644,2.79,16.056.053,1.005,1.621,1.01,1.568,0-.26-4.951-2.158-9.631-2.656-14.579-.547-5.415-.718-10.869-.96-16.3-.242-5.481-.618-10.953-.845-16.434s-1.026-11.951.732-17.224c.32-.963-1.195-1.37-1.512-.417Z" transform="translate(-370.375 -318.702)" fill="#1f0e03"/>
          </g>
          <g id="Group_360" data-name="Group 360" transform="translate(113.717 145.176)">
            <path id="Path_285" data-name="Path 285" d="M386.865,285.034c-2.46,8.68-4.193,19.758,5.54,24.639,3.509,1.759,7.508.888,10.894-.646a28.385,28.385,0,0,0,6.42-4.585c1.988-1.7,2.86.881,4.618,2.137,14.3,10.229,33.128-3.933,37.866-18.044.322-.961-1.193-1.371-1.513-.416-5.054,15.056-26.65,28.885-39.083,13.53a.789.789,0,0,0-1.109,0c-5.156,4.635-11.86,10.124-18.893,5.78-7.665-4.733-5.212-14.982-3.227-21.977a.785.785,0,0,0-1.513-.417Z" transform="translate(-384.946 -284.48)" fill="#1f0e03"/>
          </g>
          <g id="Group_361" data-name="Group 361" transform="translate(65.053 278.937)">
            <path id="Path_286" data-name="Path 286" d="M354.9,386.158c4.941-.878,8.9-3.971,13.061-6.578,5.731-3.6,12.17-5.661,18.388-8.225.921-.379.517-1.9-.417-1.513-5.133,2.119-10.387,3.906-15.349,6.425-5.391,2.735-9.991,7.293-16.1,8.379-.994.177-.571,1.687.417,1.513Z" transform="translate(-353.912 -369.779)" fill="#1f0e03"/>
          </g>
          <g id="Group_362" data-name="Group 362" transform="translate(53.612 276.484)">
            <path id="Path_287" data-name="Path 287" d="M347.822,386.967c12.487-5.274,23.989-12.685,36.809-17.19.947-.334.539-1.849-.417-1.513-12.95,4.552-24.571,12.021-37.184,17.35-.928.392-.129,1.742.792,1.353Z" transform="translate(-346.617 -368.215)" fill="#1f0e03"/>
          </g>
          <g id="Group_363" data-name="Group 363" transform="translate(50.875 275.305)">
            <path id="Path_288" data-name="Path 288" d="M346.036,383.693c4.932-3,10.56-4.386,15.628-7.078,5.021-2.666,10.013-5.4,15.206-7.721.922-.412.122-1.763-.792-1.353-5.194,2.319-10.19,5.046-15.2,7.72-5.07,2.7-10.692,4.082-15.63,7.079a.785.785,0,0,0,.792,1.355Z" transform="translate(-344.871 -367.463)" fill="#1f0e03"/>
          </g>
          <g id="Group_364" data-name="Group 364" transform="translate(133.349 172.518)">
            <path id="Path_289" data-name="Path 289" d="M397.481,305.07c.525,2.783,4.464,2.688,5.739.536a2.423,2.423,0,0,0-1.154-3.224,3.333,3.333,0,0,0-4.272.695c-.575.836.784,1.618,1.353.79.69-1,3.574.045,2.561,1.165-.77.852-2.47.917-2.716-.379-.188-.993-1.7-.571-1.512.417Z" transform="translate(-397.465 -301.916)" fill="#1f0e03"/>
          </g>
          <g id="Group_365" data-name="Group 365" transform="translate(131.252 185.061)">
            <path id="Path_290" data-name="Path 290" d="M396.161,312.129c-.4,2.774,2.816,3.555,4.682,2.01a2.55,2.55,0,0,0,.648-3.376c-.834-1.115-2.456-.935-3.626-.565-.96.3-.549,1.818.417,1.512a2.452,2.452,0,0,1,1.918-.066c.485.285-.166,1.16-.427,1.352-.572.419-2.269.728-2.1-.45.143-.99-1.369-1.416-1.513-.417Z" transform="translate(-396.127 -309.915)" fill="#1f0e03"/>
          </g>
          <g id="Group_366" data-name="Group 366" transform="translate(130.331 198.733)">
            <path id="Path_291" data-name="Path 291" d="M395.541,322.185c.138,3.146,4.778,1.891,5.244-.485.566-2.9-4.491-4.49-4.985-1.342-.155.99,1.357,1.414,1.513.417.19-1.211,1.919-.381,1.941.558.017.742-2.106,1.75-2.145.852-.044-1.007-1.612-1.01-1.568,0Z" transform="translate(-395.54 -318.633)" fill="#1f0e03"/>
          </g>
          <g id="Group_367" data-name="Group 367" transform="translate(99.734 287.327)">
            <path id="Path_292" data-name="Path 292" d="M376.1,375.88a15.906,15.906,0,0,0,.955,7.149c.369.928,1.886.524,1.512-.417a14.8,14.8,0,0,1-.9-6.732c.1-1.005-1.466-.994-1.568,0Z" transform="translate(-376.028 -375.13)" fill="#1f0e03"/>
          </g>
          <g id="Group_368" data-name="Group 368" transform="translate(119.044 262.286)">
            <path id="Path_293" data-name="Path 293" d="M388.69,360.657c2.926,2.057,3.158,6.135,3.985,9.31,1.1,4.2,1.91,9.413.052,13.516-.416.913.936,1.711,1.353.79,2.1-4.629,1.223-9.932.108-14.725-.864-3.713-1.378-7.9-4.708-10.245-.828-.583-1.61.778-.79,1.353Z" transform="translate(-388.342 -359.161)" fill="#1f0e03"/>
          </g>
          <g id="Group_369" data-name="Group 369" transform="translate(81.409 85.81)">
            <path id="Path_294" data-name="Path 294" d="M364.5,247.191c-2.464,18.289,24.554,18.349,36.218,17.794,1.007-.047,1.011-1.615,0-1.568-10.295.491-36.969.985-34.706-15.808.133-.988-1.378-1.414-1.512-.417Z" transform="translate(-364.342 -246.622)" fill="#1f0e03"/>
          </g>
          <path id="Path_295" data-name="Path 295" d="M397.527,259.391c0,2.6-2.591,4.7-5.783,4.7s-5.777-2.106-5.777-4.7,2.586-4.706,5.777-4.706S397.527,256.794,397.527,259.391Z" transform="translate(-270.648 -156.231)" fill="#c48313"/>
          <path id="Path_296" data-name="Path 296" d="M403.658,194.234c-19.211.481-29.889,10.889-35.267,21.943a17.757,17.757,0,0,1,5.459,1.52c3.981-6.9,11.534-14.482,25.645-15.568,37.461-1.659,53.262,27.707,53.958,43.1,0,0,3.93,4.027,6.939-.944C459.692,222.967,441.58,193.287,403.658,194.234Z" transform="translate(-280.634 -190.588)" fill="#c48313"/>
          <path id="Path_297" data-name="Path 297" d="M445.773,250.491a15.11,15.11,0,0,1-15.107,15.11h0a15.108,15.108,0,0,1-15.109-15.11V240.006A15.106,15.106,0,0,1,430.666,224.9h0a15.109,15.109,0,0,1,15.107,15.107Z" transform="translate(-253.837 -173.154)" fill="#c48313"/>
          <g id="Group_370" data-name="Group 370" transform="translate(168.212 57.809)">
            <path id="Path_298" data-name="Path 298" d="M439.863,246.68a9.289,9.289,0,0,1-17.993,2.959c-1.121-2.857-.483-6.906-.483-9.914,0-10.436,14.352-12.238,17.993-2.958,1.121,2.856.483,6.9.483,9.912a.784.784,0,0,0,1.568,0c0-6.291.615-12.362-5.352-16.282-7.231-4.748-15.844,1.625-16.26,9.327-.334,6.189-.384,12.517,5.35,16.285,7.232,4.748,15.846-1.628,16.262-9.33C441.486,245.67,439.916,245.675,439.863,246.68Z" transform="translate(-419.697 -228.766)" fill="#1f0e03"/>
          </g>
        </g>
        <g id="laptop" transform="translate(97.958 321.273)">
          <path id="Path_299" data-name="Path 299" d="M395.588,429.955h120.56c5.551,0,6.784,11.1-2.467,11.1H237.108c-8.325-16.65-45.633-118.4-49.333-127.96s-.307-20.657,14.8-20.657H308.642c11.1,0,23.433,1.844,31.14,18.807S395.588,429.955,395.588,429.955Z" transform="translate(-186.401 -292.439)" fill="#9f6300"/>
          <path id="Path_300" data-name="Path 300" d="M475.817,440.615a7.194,7.194,0,0,0,1-.445.514.514,0,0,0,.083-.042c4.736-2.652,3.111-10.172-1.462-10.172H354.876l-.094-.2c-.055-.115-.13-.271-.234-.491-.428-.906-1.264-2.68-2.445-5.18-10.345-21.891-46.445-98.341-53.034-112.835-7.707-16.963-20.041-18.807-31.14-18.807h-9.87c11.1,0,23.434,1.844,31.143,18.807s55.808,118.709,55.808,118.709l4.163,10.8s5.2.124,13.494.3h110.3a9.932,9.932,0,0,0,1.548-.121,7.2,7.2,0,0,0,.856-.21C475.518,440.685,475.679,440.66,475.817,440.615Z" transform="translate(-145.689 -292.439)" fill="#724802"/>
          <path id="Path_301" data-name="Path 301" d="M266.119,345.749c3.044,7.527-.563,13.627-8.054,13.627s-16.036-6.1-19.078-13.627.563-13.633,8.055-13.633S263.077,338.221,266.119,345.749Z" transform="translate(-157.138 -269.897)" fill="none" stroke="#1f0e03" stroke-miterlimit="10" stroke-width="1"/>
        </g>
      </g>
      <g id="help_boy" data-name="help boy" transform="translate(92.613 324.953)">
        <path id="Path_304" data-name="Path 304" d="M193.615,243.809c10.586,10.03,19.231,10.03,19.211,0s-.056-26.44-.075-36.469S204.066,189.1,193.5,189.1H155.078c-10.565,0-10.547,8.208.039,18.237S183.029,233.78,193.615,243.809Z" transform="translate(-96.609 -3.931)" fill="#c48313"/>
        <path id="Rectangle_736" data-name="Rectangle 736" d="M38.383,0H311.11a38.382,38.382,0,0,1,38.382,38.382V166.063a38.381,38.381,0,0,1-38.381,38.381H38.382A38.382,38.382,0,0,1,0,166.062V38.383A38.383,38.383,0,0,1,38.383,0Z" fill="#c48313"/>
        <text id="HELP_" data-name="HELP!" transform="translate(155.031 61.164)" fill="#490a3d" font-size="33" font-family="Raleway-Bold, Raleway" font-weight="700"><tspan x="0" y="0">HELP!</tspan></text>
        <rect id="Rectangle_737" data-name="Rectangle 737" width="157.786" height="10.261" transform="translate(158.67 80.246)" fill="#fff2db"/>
        <rect id="Rectangle_738" data-name="Rectangle 738" width="136.256" height="10.258" transform="translate(158.67 105.172)" fill="#fff2db"/>
        <rect id="Rectangle_739" data-name="Rectangle 739" width="90.378" height="10.258" transform="translate(158.67 130.1)" fill="#fff2db"/>
        <rect id="Rectangle_740" data-name="Rectangle 740" width="146.174" height="10.263" transform="translate(158.67 155.022)" fill="#fff2db"/>
        <g id="Group_379" data-name="Group 379" transform="translate(40.717 29.183)">
          <path id="Path_305" data-name="Path 305" d="M227.67,181.858c-4.7-11.676-20.97-20.019-29.28-19.908H170.32c-9.229.869-24.581,8.232-29.282,19.908a61.992,61.992,0,0,0,86.632,0Z" transform="translate(-141.038 -49.559)" fill="#31241c"/>
          <path id="Path_306" data-name="Path 306" d="M162.6,147.023s-2.688,22.084-4.544,34.571c-1.355,9.12,31.379,11.684,32.373,1.851.869-11.662,1.867-31.427,1.867-31.427" transform="translate(-130.753 -58.599)" fill="#c97440"/>
          <path id="Path_307" data-name="Path 307" d="M160.046,157.171l1.331-10.148,29.7,5s-.31,6.073-.724,13.688a28.418,28.418,0,0,1-30.3-8.536Z" transform="translate(-129.526 -58.599)" fill="#ab5d2d"/>
          <path id="Path_308" data-name="Path 308" d="M213.691,157.548a28.656,28.656,0,0,1-26.437,30.716h0a28.657,28.657,0,0,1-30.713-26.445L154.28,131.6a28.651,28.651,0,0,1,26.44-30.708h0a28.655,28.655,0,0,1,30.716,26.435Z" transform="translate(-133.068 -86.589)" fill="#c97440"/>
          <g id="Group_375" data-name="Group 375" transform="translate(39.615 39.855)">
            <path id="Path_309" data-name="Path 309" d="M167.7,125.088a15.011,15.011,0,0,0,9.655-6.007c1.2-1.675-1.565-3.263-2.75-1.609-1.916,2.673-4.6,3.876-7.75,4.544-2.01.425-1.158,3.5.846,3.072Z" transform="translate(-165.71 -116.774)" fill="#31241c"/>
          </g>
          <g id="Group_376" data-name="Group 376" transform="translate(66.336 37.63)">
            <path id="Path_310" data-name="Path 310" d="M190.049,119.662a6.283,6.283,0,0,1-4.733-3.487c-.992-1.8-3.744-.191-2.75,1.609a9.289,9.289,0,0,0,6.638,4.95c2.009.377,2.864-2.693.846-3.072Z" transform="translate(-182.352 -115.388)" fill="#31241c"/>
          </g>
          <g id="Group_377" data-name="Group 377" transform="translate(57.486 57.997)">
            <path id="Path_311" data-name="Path 311" d="M179.047,138.5a1.2,1.2,0,0,1-.9-2.007l3.828-4.282-4.393-1.822a1.2,1.2,0,1,1,.922-2.225l5.962,2.473a1.205,1.205,0,0,1,.437,1.915l-4.96,5.547A1.2,1.2,0,0,1,179.047,138.5Z" transform="translate(-176.84 -128.073)" fill="#31241c"/>
          </g>
          <g id="Group_378" data-name="Group 378" transform="translate(51.249 74.235)">
            <path id="Path_312" data-name="Path 312" d="M174.162,144.557a1.2,1.2,0,0,1-.7-2.187c4.743-3.353,9-4.7,12.662-4.008a1.2,1.2,0,0,1-.45,2.367c-2.988-.567-6.633.645-10.82,3.608A1.2,1.2,0,0,1,174.162,144.557Z" transform="translate(-172.956 -138.186)" fill="#31241c"/>
          </g>
          <path id="Path_313" data-name="Path 313" d="M176.232,130.1a3.482,3.482,0,1,1-2.548-4.216A3.486,3.486,0,0,1,176.232,130.1Z" transform="translate(-123.88 -71.461)" fill="#1a191f"/>
          <path id="Path_314" data-name="Path 314" d="M189.2,129.328a3.484,3.484,0,1,1-2.55-4.21A3.485,3.485,0,0,1,189.2,129.328Z" transform="translate(-116.026 -71.928)" fill="#1a191f"/>
          <path id="Path_315" data-name="Path 315" d="M167.111,138.285a10.4,10.4,0,0,1-7.656,12.566h0a10.4,10.4,0,0,1-12.569-7.652L146.11,140a10.408,10.408,0,0,1,7.657-12.569h0a10.41,10.41,0,0,1,12.569,7.656Z" transform="translate(-138.146 -70.641)" fill="#c97440"/>
          <path id="Path_316" data-name="Path 316" d="M151.636,149.787c-2.445-6.967-14.369-35.31,3.362-36.165,1.1-11.125,16.569-17,35.888-20.785s31.364,5.258,29.9,14.306-13.33,12.351-22.742,9.66c-2.691,9.78-15.652,6.484-18.463,4.525C177.4,130.8,166.643,133.1,167.869,139.7s1.771,13.325,2.015,14.672-5.379,3.976-6.6,1.283S157.23,148.138,151.636,149.787Z" transform="translate(-138.368 -91.952)" fill="#31241c"/>
        </g>
        <g id="Group_380" data-name="Group 380" transform="translate(106.81 143.632)">
          <path id="Path_317" data-name="Path 317" d="M182.78,261.369c11.726,2.327,5.006-37.451,4.929-43.448l-.8.8c25.233.225,50.472.291,75.7.069,18.039-.157,36.061-.62,54.1-.618,11.093,0,22.127-.409,33.208-.837,11.88-.459,23.723-.421,35.3-3.5,22.142-5.883,30.2-29.3,32.492-49.844.114-1.029-1.493-1.016-1.606,0-1.7,15.25-6.321,31.962-18.588,42.121-9.242,7.652-22.861,8.624-34.327,9.179-11.419.556-22.888,1.039-34.32,1.2-36.162.519-72.353.872-108.522.79q-16.72-.036-33.442-.173a.808.808,0,0,0-.8.8c.064,5.058,5.3,43.526-2.9,41.9-1.01-.2-1.442,1.347-.427,1.548Z" transform="translate(-182.201 -163.231)" fill="#1f0e03"/>
        </g>
        <g id="Group_381" data-name="Group 381" transform="translate(341.078 74.9)">
          <path id="Path_318" data-name="Path 318" d="M328.6,121.2c.013,19.945.869,40-.491,59.916-.071,1.034,1.537,1.026,1.606,0,1.36-19.916.5-39.971.491-59.916a.8.8,0,0,0-1.606,0Z" transform="translate(-328.105 -120.424)" fill="#1f0e03"/>
        </g>
      </g>
    </g>
    <g id="Group_392" data-name="Group 392" transform="translate(623.292 109.157)">
      <path id="Rectangle_741" data-name="Rectangle 741" d="M39.792,0h228.4a39.793,39.793,0,0,1,39.793,39.793V140.369a39.793,39.793,0,0,1-39.793,39.793H39.793A39.793,39.793,0,0,1,0,140.369V39.792A39.792,39.792,0,0,1,39.792,0Z" fill="#c48313"/>
      <path id="Path_319" data-name="Path 319" d="M540.584,358.731c-9.33,8.836-16.949,8.836-16.932,0s.051-23.3.068-32.137,7.652-16.07,16.963-16.07h33.858c9.312,0,9.3,7.231-.033,16.07Z" transform="translate(-479.101 -147.343)" fill="#c48313"/>
      <text id="THANKS_" data-name="THANKS!" transform="translate(39.831 58.422)" fill="#490a3d" font-size="29" font-family="Raleway-Bold, Raleway" font-weight="700"><tspan x="0" y="0">THANKS!</tspan></text>
      <rect id="Rectangle_742" data-name="Rectangle 742" width="139.047" height="9.04" transform="translate(36.149 74.503)" fill="#fff2db"/>
      <rect id="Rectangle_743" data-name="Rectangle 743" width="120.074" height="9.046" transform="translate(36.149 96.466)" fill="#fff2db"/>
      <rect id="Rectangle_744" data-name="Rectangle 744" width="79.643" height="9.042" transform="translate(36.149 118.434)" fill="#fff2db"/>
      <g id="Group_388" data-name="Group 388" transform="translate(207.106 29.075)">
        <path id="Path_320" data-name="Path 320" d="M642.759,302.376c4.144-10.289,18.478-17.641,25.8-17.546H693.3c8.131.767,21.662,7.257,25.8,17.546a54.634,54.634,0,0,1-76.342,0Z" transform="translate(-642.759 -185.79)" fill="#31241c"/>
        <g id="Group_387" data-name="Group 387" transform="translate(5.221 12.53)">
          <path id="Path_321" data-name="Path 321" d="M685.126,269.356s2.368,19.46,4,30.466c1.194,8.036-27.652,10.3-28.528,1.631-.767-10.275-1.646-27.693-1.646-27.693" transform="translate(-642.072 -203.964)" fill="#c97440"/>
          <path id="Path_322" data-name="Path 322" d="M686.3,278.3l-1.171-8.943-26.17,4.4s.272,5.353.639,12.063a25.054,25.054,0,0,0,26.7-7.524Z" transform="translate(-642.072 -203.964)" fill="#ab5d2d"/>
          <path id="Path_323" data-name="Path 323" d="M646.656,271.446a25.259,25.259,0,0,0,23.3,27.068h0a25.255,25.255,0,0,0,27.064-23.3l1.994-26.634a25.249,25.249,0,0,0-23.3-27.062h0a25.245,25.245,0,0,0-27.065,23.3Z" transform="translate(-646.585 -221.443)" fill="#c97440"/>
          <g id="Group_383" data-name="Group 383" transform="translate(25.933 23.29)">
            <path id="Path_324" data-name="Path 324" d="M674.3,242.668a7.689,7.689,0,0,0-7.422-4.118c-1.714.2-1.732,2.91,0,2.708a5.067,5.067,0,0,1,5.084,2.777c.805,1.549,3.142.18,2.338-1.368Z" transform="translate(-665.586 -238.508)" fill="#31241c"/>
          </g>
          <g id="Group_384" data-name="Group 384" transform="translate(4.917 22.227)">
            <path id="Path_325" data-name="Path 325" d="M652.485,242.207a5.8,5.8,0,0,1,5.051-1.684c1.7.411,2.417-2.2.721-2.611a8.515,8.515,0,0,0-7.685,2.38c-1.205,1.262.706,3.181,1.913,1.915Z" transform="translate(-650.188 -237.729)" fill="#31241c"/>
          </g>
          <g id="Group_385" data-name="Group 385" transform="translate(13.124 38.616)">
            <path id="Path_326" data-name="Path 326" d="M661.6,258.854a1.018,1.018,0,0,1-.763-.341l-4.371-4.89a1.023,1.023,0,0,1,.371-1.627l5.254-2.181a1.024,1.024,0,0,1,.784,1.892l-3.921,1.627,3.411,3.815a1.024,1.024,0,0,1-.764,1.706Z" transform="translate(-656.201 -249.737)" fill="#31241c"/>
          </g>
          <g id="Group_386" data-name="Group 386" transform="translate(12.301 51.464)">
            <path id="Path_327" data-name="Path 327" d="M661.419,269.44h0c-2.8,0-4.7-2.971-5.8-9.085a1.021,1.021,0,0,1,.273-.893,1.044,1.044,0,0,1,.884-.3,45.8,45.8,0,0,0,7.079.516c1.631,0,3.4-.067,5.415-.2a1.022,1.022,0,0,1,.951,1.541C666.872,266.683,663.994,269.44,661.419,269.44Zm-3.512-8.06c.856,3.843,2.111,6.013,3.51,6.013.9,0,2.825-.794,6.017-5.762A53.592,53.592,0,0,1,657.907,261.38Z" transform="translate(-655.598 -259.151)" fill="#31241c"/>
          </g>
          <path id="Path_328" data-name="Path 328" d="M664.917,251.144a3.069,3.069,0,1,0,2.245-3.718A3.072,3.072,0,0,0,664.917,251.144Z" transform="translate(-639.93 -211.997)" fill="#1a191f"/>
          <path id="Path_329" data-name="Path 329" d="M651.469,250.343a3.071,3.071,0,1,0,2.249-3.714A3.074,3.074,0,0,0,651.469,250.343Z" transform="translate(-644.836 -212.288)" fill="#1a191f"/>
        </g>
        <path id="Path_330" data-name="Path 330" d="M680.065,258.566a9.17,9.17,0,0,0,6.743,11.075h0a9.166,9.166,0,0,0,11.077-6.747l.684-2.813A9.165,9.165,0,0,0,691.824,249h0a9.172,9.172,0,0,0-11.077,6.747Z" transform="translate(-629.246 -198.954)" fill="#c97440"/>
        <path id="Path_331" data-name="Path 331" d="M706.448,263.23c2.154-6.143,12.658-31.118-2.964-31.87-.972-9.807-14.6-14.979-31.625-18.318s-27.641,4.635-26.349,12.608,11.747,10.88,20.042,8.512c2.371,8.62,13.791,5.709,16.272,3.988,1.912,8.35,11.393,10.37,10.318,16.189s-1.563,11.744-1.78,12.931,4.74,3.5,5.822,1.13S701.517,261.774,706.448,263.23Z" transform="translate(-641.794 -212.262)" fill="#31241c"/>
      </g>
      <g id="Group_389" data-name="Group 389" transform="translate(252.378 141.015)">
        <path id="Path_332" data-name="Path 332" d="M676.589,329.4c20.046-.794,41.532-13.55,45.8-34.268.177-.858-1.14-1.224-1.317-.362-4.145,20.12-25.012,32.493-44.484,33.265-.878.034-.88,1.4,0,1.365Z" transform="translate(-675.93 -294.282)" fill="#1f0e03"/>
      </g>
      <g id="Group_390" data-name="Group 390" transform="translate(235.794 174.881)">
        <path id="Path_333" data-name="Path 333" d="M664.438,320.462c3.656.13,7.315.2,10.974.284a.683.683,0,0,0,0-1.365c-3.659-.082-7.318-.154-10.974-.284-.882-.033-.878,1.333,0,1.365Z" transform="translate(-663.779 -319.097)" fill="#1f0e03"/>
      </g>
      <g id="Group_391" data-name="Group 391" transform="translate(59.99 173.973)">
        <path id="Path_334" data-name="Path 334" d="M536.148,350.85c6.873-6.184,13.772-12.335,20.232-18.956,2.989-3.063,5.656-7.06,9.264-9.484,2.137-1.436,4.788-1.666,7.285-1.81,4.917-.284,9.867-.157,14.789-.224,8.928-.121,17.843-.6,26.774-.581,9.567.018,19.129.45,28.684.886,18.612.849,37.268,1.729,55.846-.186.867-.089.875-1.455,0-1.365-19.006,1.958-38.1.995-57.134.127-10.009-.456-20.021-.845-30.043-.827-8.941.015-17.875.517-26.815.614-6.1.067-14.584-1.284-20.075,2.185-3.4,2.152-5.955,5.93-8.657,8.781-6.652,7.016-13.932,13.413-21.115,19.874-.656.588.313,1.55.965.965Z" transform="translate(-534.965 -318.431)" fill="#1f0e03"/>
      </g>
    </g>
    <g id="Group_401" data-name="Group 401" transform="translate(646.222 39.755)">
      <g id="Group_398" data-name="Group 398" transform="translate(21.33 15.079)">
        <g id="Group_393" data-name="Group 393">
          <path id="Path_335" data-name="Path 335" d="M432.658,114.366c.817-1.656,2.155-1.656,2.972,0l2.611,5.29a7.17,7.17,0,0,0,4.81,3.5l5.838.849c1.827.265,2.24,1.538.918,2.827l-4.223,4.115a7.177,7.177,0,0,0-1.837,5.655l1,5.813c.312,1.82-.77,2.607-2.4,1.749l-5.223-2.746a7.171,7.171,0,0,0-5.946,0l-5.22,2.744c-1.635.86-2.717.073-2.4-1.748l1-5.813a7.172,7.172,0,0,0-1.836-5.655l-4.223-4.115c-1.322-1.289-.909-2.562.919-2.827l5.835-.851a7.174,7.174,0,0,0,4.81-3.5Z" transform="translate(-417.71 -113.124)" fill="#490a3d"/>
        </g>
        <g id="Group_394" data-name="Group 394" transform="translate(46.648)">
          <path id="Path_336" data-name="Path 336" d="M474.326,114.366c.818-1.656,2.155-1.656,2.974,0l2.607,5.29a7.173,7.173,0,0,0,4.81,3.5l5.837.849c1.827.265,2.241,1.538.918,2.827l-4.222,4.115a7.172,7.172,0,0,0-1.836,5.655l1,5.813c.313,1.82-.769,2.607-2.4,1.748l-5.221-2.744a7.171,7.171,0,0,0-5.946,0l-5.224,2.746c-1.635.859-2.717.072-2.4-1.749l1-5.813a7.172,7.172,0,0,0-1.836-5.655l-4.222-4.115c-1.322-1.289-.909-2.562.919-2.827l5.836-.851a7.178,7.178,0,0,0,4.811-3.5Z" transform="translate(-459.377 -113.124)" fill="#490a3d"/>
        </g>
        <g id="Group_395" data-name="Group 395" transform="translate(93.298)">
          <path id="Path_337" data-name="Path 337" d="M515.992,114.366c.818-1.656,2.156-1.656,2.974,0l2.61,5.29a7.17,7.17,0,0,0,4.81,3.5l5.837.849c1.827.265,2.24,1.538.918,2.827l-4.222,4.115a7.176,7.176,0,0,0-1.837,5.655l1,5.813c.312,1.82-.77,2.607-2.4,1.748l-5.222-2.744a7.167,7.167,0,0,0-5.946,0l-5.219,2.744c-1.635.86-2.717.073-2.4-1.748l1-5.813a7.173,7.173,0,0,0-1.837-5.655l-4.221-4.115c-1.322-1.289-.909-2.562.919-2.828l5.833-.849a7.184,7.184,0,0,0,4.81-3.5Z" transform="translate(-501.045 -113.124)" fill="#490a3d"/>
        </g>
        <g id="Group_396" data-name="Group 396" transform="translate(139.945)">
          <path id="Path_338" data-name="Path 338" d="M557.66,114.366c.818-1.656,2.156-1.656,2.973,0l2.609,5.29a7.17,7.17,0,0,0,4.81,3.5l5.837.849c1.827.265,2.24,1.538.918,2.827l-4.223,4.115a7.172,7.172,0,0,0-1.836,5.655l1,5.813c.314,1.82-.769,2.607-2.4,1.748l-5.221-2.744a7.167,7.167,0,0,0-5.946,0l-5.222,2.744c-1.635.86-2.717.073-2.4-1.748l1-5.813a7.178,7.178,0,0,0-1.837-5.655l-4.222-4.115c-1.322-1.289-.909-2.562.919-2.827l5.835-.851a7.178,7.178,0,0,0,4.811-3.5Z" transform="translate(-542.711 -113.124)" fill="#490a3d"/>
        </g>
        <g id="Group_397" data-name="Group 397" transform="translate(186.594)">
          <path id="Path_339" data-name="Path 339" d="M599.325,114.366c.818-1.656,2.156-1.656,2.975,0l2.611,5.29a7.175,7.175,0,0,0,4.811,3.5l5.836.849c1.828.265,2.241,1.538.919,2.827l-4.225,4.115a7.172,7.172,0,0,0-1.836,5.655l1,5.813c.313,1.82-.769,2.607-2.4,1.749l-5.223-2.746a7.171,7.171,0,0,0-5.946,0l-5.218,2.744c-1.635.86-2.717.073-2.4-1.748l1-5.813a7.177,7.177,0,0,0-1.837-5.655l-4.223-4.115c-1.322-1.289-.909-2.562.919-2.828l5.833-.849a7.183,7.183,0,0,0,4.811-3.5Z" transform="translate(-584.379 -113.124)" fill="#490a3d"/>
        </g>
      </g>
    </g>
    <g id="Group_404" data-name="Group 404" transform="matrix(0.616, -0.788, 0.788, 0.616, 378.973, -2.699)">
      <path id="Rectangle_746" data-name="Rectangle 746" d="M20.828,0h97.111a20.829,20.829,0,0,1,20.829,20.829V52.937a20.829,20.829,0,0,1-20.829,20.829H20.829A20.829,20.829,0,0,1,0,52.937V20.828A20.828,20.828,0,0,1,20.828,0Z" fill="#490a3d"/>
      <text id="_24_7" data-name="24/7" transform="translate(26.186 47.849)" fill="#f2f2f2" font-size="36" font-family="Raleway-Bold, Raleway" font-weight="700"><tspan x="0" y="0">24/7</tspan></text>
      <g id="Group_402" data-name="Group 402" transform="translate(79.266 62.803)">
        <path id="Path_342" data-name="Path 342" d="M115.971,307.553c15.965-3.908,33.761,3.946,48.306-5.884.594-.4.036-1.373-.565-.967-14.369,9.712-32.218,1.9-48.038,5.772-.7.171-.4,1.252.3,1.079Z" transform="translate(-115.274 -300.604)" fill="#1f0e03"/>
      </g>
      <g id="Group_403" data-name="Group 403" transform="translate(131.088 27.868)">
        <path id="Path_343" data-name="Path 343" d="M164.038,269.936c.247,2.407.126,4.814.455,7.218a56.519,56.519,0,0,1,.762,8.286c-.053,5.327-.5,11-3.595,15.511-.409.6.562,1.156.967.564,2.717-3.969,3.4-8.744,3.668-13.449a38.1,38.1,0,0,0-.14-7.331c-.5-3.614-.627-7.187-1-10.8-.073-.711-1.193-.719-1.12,0Z" transform="translate(-161.562 -269.4)" fill="#1f0e03"/>
      </g>
    </g>
    <path id="mail" d="M73.094,5.625H12.372A10.132,10.132,0,0,0,2.25,15.747V59.12A10.132,10.132,0,0,0,12.372,69.241H73.094A10.132,10.132,0,0,0,83.215,59.12V15.747A10.132,10.132,0,0,0,73.094,5.625Zm-2.563,16.74L44.507,42.606a2.892,2.892,0,0,1-3.55,0L14.934,22.365a2.891,2.891,0,1,1,3.55-4.565L42.731,36.661,66.982,17.8a2.891,2.891,0,1,1,3.55,4.565Z" transform="matrix(0.914, -0.407, 0.407, 0.914, -40.226, 405.367)" fill="#490a3d" opacity="0.99"/>
    <path id="send" d="M81.616.523a3,3,0,0,1,1.248,3.042L71.02,76.551a2.987,2.987,0,0,1-1.481,2.138,2.776,2.776,0,0,1-1.435.381,3.051,3.051,0,0,1-1.11-.237L46.037,70.041,34.84,84.058a2.7,2.7,0,0,1-2.266,1.093,2.455,2.455,0,0,1-1.018-.189,2.922,2.922,0,0,1-1.412-1.116,3.021,3.021,0,0,1-.532-1.736V65.526L69.585,15.2,20.129,59.159l-18.274-7.7A2.786,2.786,0,0,1,0,48.848a2.832,2.832,0,0,1,1.481-2.8L78.468.428A2.77,2.77,0,0,1,79.949,0a2.815,2.815,0,0,1,1.665.523Z" transform="translate(735.832 -197.2)" fill="#490a3d" opacity="0.99"/>
  </g>
</svg>
