<svg xmlns="http://www.w3.org/2000/svg" xmlns:xlink="http://www.w3.org/1999/xlink" width="67.463" height="58.522" viewBox="0 0 67.463 58.522">
  <defs>
    <linearGradient id="linear-gradient" x1="0.5" x2="0.5" y2="1" gradientUnits="objectBoundingBox">
      <stop offset="0" stop-color="#f2f2f2"/>
      <stop offset="1" stop-color="#d1cfcf"/>
    </linearGradient>
  </defs>
  <g id="logo" transform="translate(0 0)">
    <path id="Path_11" data-name="Path 11" d="M248.553,521.655s-4.374,11.21,1.3,13.944H292.23l4.029,3.134-47.428.02c-2.549-.022-4.029-2.205-4.721-4.658-.747-2.647-.459-6.874,1.125-13.916l4.617-2.283Z" transform="translate(-237.819 -497.92)" fill="url(#linear-gradient)"/>
    <path id="Path_12" data-name="Path 12" d="M301.147,517.336s-17.3,7.114-36.174,3.683c0,0-3.055-.786-3.029,3.618.03,4.94-1.291,28.065-1.713,30.174l-.422,2.53,2.837-2.407a3.58,3.58,0,0,0,1.516-2.644c.47-5.83,2-24.934,1.987-26.372-.014-1.467,2.516-1.046,2.516-1.046s19.4,2.952,35.5-6.013Z" transform="translate(-244.804 -498.818)" fill="url(#linear-gradient)"/>
    <path id="Path_13" data-name="Path 13" d="M276.3,567.1l7.256-3.046a.756.756,0,0,1,.293-.059h1.174c.035,0,1.086.046,1.054.059l-7.382,3.214a7.667,7.667,0,0,1-1.18,0H276.08A.557.557,0,0,1,276.3,567.1Z" transform="translate(-251.285 -517.404)" fill="url(#linear-gradient)"/>
    <path id="Path_14" data-name="Path 14" d="M321.121,510.633c-1.154-1.154-1.178-2.823-1.178-4.248a7.469,7.469,0,0,1,1.546-4.469,7.874,7.874,0,0,1,2.407-2.283,15.218,15.218,0,0,1,.442-2.455h.2c2.333,2.283,5.77,4.395,8.667,6.58,2.136,1.621,3.02,3.07,3.02,5.255,0,2.431-1.522,4.591-4.886,4.591a22.944,22.944,0,0,1-7.194-1.449m3.634-5.794c0-2.062-1.5-3.977-2.553-3.977-1.842,0-4.051,2.6-4.051,3.879,0,.786,1.227,2.161,3.094,2.873C325.443,508.693,327.775,507.368,327.775,506.361Zm4.3,4.494c1.375,0,2.6-.467,2.6-1.105,0-1.6-2.185-3.339-5.279-5.3a12.715,12.715,0,0,1-1.866,5.623A13.81,13.81,0,0,0,332.072,510.854Z" transform="translate(-268.759 -490.788)" fill="url(#linear-gradient)"/>
    <path id="Path_15" data-name="Path 15" d="M253.729,534.067c-1.183.256-14.186.682-17.138.682-4.216,0,.422-.843,2.109-1.265.562-.141,2.108-.422,2.108-.422,7.59-1.265,15.5-2.478,18.133-3.8,4.216-2.109,3.952-3.232,4.747-4.27,1.578-2.056,3.3-7.465,5-11.655,1.247-3.55,2.073-7.084,3.32-10.6.192-.543.6-2.147,1.269-2.147.576,0,.889,4.134.889,4.677.128,1.248-.4,1.564-1.583,6.01q-3.022,11.61-7.244,18.758a7.111,7.111,0,0,1-5.229,3.262Q256.9,533.683,253.729,534.067Zm20.734-39.378-.288-.115a24.038,24.038,0,0,1-3.72-3.662q-.116-.288.274-.764a5.057,5.057,0,0,0,.447-.591q1.01-1.066,3-3l.49.058a34.2,34.2,0,0,0,3.345,3.287l.115.317a.244.244,0,0,1,0,.346A47.189,47.189,0,0,1,274.464,494.689Z" transform="translate(-234.868 -486.557)" fill="url(#linear-gradient)"/>
  </g>
</svg>
