<svg xmlns="http://www.w3.org/2000/svg" width="67.166" height="47.016" viewBox="0 0 67.166 47.016">
  <path id="money" d="M9.717,7.5H63.449a6.717,6.717,0,0,1,6.717,6.717V47.8a6.717,6.717,0,0,1-6.717,6.717H9.717A6.717,6.717,0,0,1,3,47.8V14.217A6.717,6.717,0,0,1,9.717,7.5Zm47.016,6.717h-40.3a6.717,6.717,0,0,1-6.717,6.717v20.15A6.717,6.717,0,0,1,16.433,47.8h40.3a6.717,6.717,0,0,1,6.717-6.717V20.933A6.717,6.717,0,0,1,56.733,14.217ZM23.15,20.933h6.717v20.15H23.15ZM43.3,34.366a3.358,3.358,0,1,0-3.358-3.358A3.358,3.358,0,0,0,43.3,34.366Zm0,6.717A10.075,10.075,0,1,1,53.375,31.008,10.075,10.075,0,0,1,43.3,41.083Z" transform="translate(-3 -7.5)" fill="#c48313"/>
</svg>
