<svg xmlns="http://www.w3.org/2000/svg" xmlns:xlink="http://www.w3.org/1999/xlink" width="169.002" height="212.406" viewBox="0 0 169.002 212.406">
  <defs>
    <linearGradient id="linear-gradient" x1="0.5" x2="0.5" y2="1" gradientUnits="objectBoundingBox">
      <stop offset="0" stop-color="#f2f2f2"/>
      <stop offset="1" stop-color="#d1cfcf"/>
    </linearGradient>
  </defs>
  <g id="zihre-logo" transform="translate(0 0)">
    <g id="logo">
      <path id="Path_11" data-name="Path 11" d="M255.832,527.313s-10.959,28.081,3.253,34.93H365.246l10.094,7.852-118.812.05c-6.384-.054-10.093-5.524-11.826-11.668-1.872-6.63-1.151-17.219,2.818-34.861l11.566-5.72Z" transform="translate(-228.942 -467.856)" fill="url(#linear-gradient)"/>
      <path id="Path_12" data-name="Path 12" d="M363.365,517.336s-43.342,17.821-90.62,9.225c0,0-7.652-1.968-7.587,9.064.074,12.377-3.234,70.307-4.291,75.589l-1.056,6.338,7.106-6.03a8.967,8.967,0,0,0,3.8-6.624c1.177-14.606,5.011-62.462,4.977-66.065-.035-3.676,6.3-2.62,6.3-2.62s48.593,7.394,88.937-15.064Z" transform="translate(-222.219 -470.947)" fill="url(#linear-gradient)"/>
      <path id="Path_13" data-name="Path 13" d="M276.633,571.77l18.178-7.629a1.894,1.894,0,0,1,.734-.148h2.942c.088,0,2.721.115,2.641.148l-18.492,8.051a19.188,19.188,0,0,1-2.957,0h-3.6A1.4,1.4,0,0,1,276.633,571.77Z" transform="translate(-213.967 -447.284)" fill="url(#linear-gradient)"/>
      <path id="Path_14" data-name="Path 14" d="M322.894,530.884c-2.891-2.891-2.951-7.073-2.951-10.641a18.712,18.712,0,0,1,3.873-11.2,19.726,19.726,0,0,1,6.029-5.72,38.125,38.125,0,0,1,1.106-6.151h.493c5.843,5.72,14.454,11.01,21.712,16.484,5.35,4.06,7.566,7.69,7.566,13.164,0,6.089-3.813,11.5-12.24,11.5-5.106,0-11.872-1.414-18.023-3.629m9.1-14.516c0-5.167-3.751-9.964-6.4-9.964-4.613,0-10.149,6.52-10.149,9.718,0,1.968,3.075,5.412,7.75,7.2C333.72,526.025,339.563,522.7,339.563,520.182Zm10.764,11.257c3.444,0,6.52-1.169,6.52-2.769,0-4-5.474-8.365-13.225-13.286a31.855,31.855,0,0,1-4.674,14.086A34.593,34.593,0,0,0,350.328,531.439Z" transform="translate(-191.721 -481.17)" fill="url(#linear-gradient)"/>
      <path id="Path_15" data-name="Path 15" d="M282.118,605.574c-2.965.642-35.538,1.708-42.933,1.708-10.562,0,1.057-2.112,5.283-3.168,1.408-.353,5.281-1.057,5.281-1.057,19.014-3.17,38.822-6.206,45.424-9.507,10.562-5.283,9.9-8.1,11.893-10.7,3.952-5.15,8.276-18.7,12.525-29.2,3.124-8.894,5.192-17.747,8.318-26.561.481-1.361,1.5-5.379,3.18-5.379,1.442,0,2.228,10.356,2.228,11.717.32,3.126-1,3.919-3.967,15.055q-7.571,29.085-18.146,46.991-3.968,6.61-13.1,8.172Q290.05,604.614,282.118,605.574Zm51.942-98.646-.722-.289a60.215,60.215,0,0,1-9.319-9.174q-.289-.721.686-1.914a12.672,12.672,0,0,0,1.12-1.482q2.53-2.67,7.513-7.512l1.228.145a85.7,85.7,0,0,0,8.38,8.235l.289.794a.612.612,0,0,1,0,.867A118.25,118.25,0,0,1,334.059,506.928Z" transform="translate(-234.868 -486.557)" fill="url(#linear-gradient)"/>
    </g>
    <text id="ZIHRE" transform="translate(28 205.406)" fill="#f2f2f2" font-size="29" font-family="Raleway" letter-spacing="0.25em"><tspan x="0" y="0">ZIHRE</tspan></text>
  </g>
</svg>
